<svg width="1440" height="6381" viewBox="0 0 1440 6381" fill="none" xmlns="http://www.w3.org/2000/svg">
<g filter="url(#filter0_f_4092_2)">
<path d="M1208.93 2960.73C1217.43 2971.23 1228.7 2978.22 1240.88 2981.48C1259.19 2986.39 1279.52 2982.85 1295.38 2970.2C1295.42 2970.18 1295.46 2970.15 1295.5 2970.12C1295.54 2970.09 1295.58 2970.06 1295.61 2970.03L1295.67 2969.99C1295.71 2969.96 1295.74 2969.93 1295.78 2969.9L1352.12 2924.31L1378.12 2991.96C1378.15 2992.03 1378.18 2992.09 1378.2 2992.15C1378.22 2992.18 1378.23 2992.21 1378.24 2992.25C1390.55 3023.86 1426.26 3039.66 1457.95 3027.49C1489.67 3015.32 1505.59 2979.64 1493.57 2947.88L1493.55 2947.8C1493.53 2947.74 1493.51 2947.69 1493.48 2947.63L1467.57 2879.98L1539.94 2876.15C1573.93 2874.35 1600.16 2845.2 1598.37 2811.19C1596.58 2777.19 1567.47 2750.97 1533.45 2752.73L1461.11 2756.47L1479.85 2686.42C1488.63 2653.52 1469.05 2619.58 1436.17 2610.77C1403.29 2601.96 1369.36 2621.56 1360.51 2654.47L1341.69 2724.44L1280.91 2685.03C1280.89 2685.02 1280.86 2685.01 1280.83 2684.99C1280.79 2684.97 1280.75 2684.94 1280.72 2684.91C1252.17 2666.51 1213.97 2674.7 1195.46 2703.2C1176.96 2731.7 1185.01 2769.91 1213.37 2788.52C1213.4 2788.53 1213.42 2788.55 1213.45 2788.57L1213.54 2788.64L1213.59 2788.67L1274.31 2828.16L1218.05 2873.8C1218.03 2873.83 1218 2873.85 1217.97 2873.88C1217.94 2873.9 1217.91 2873.92 1217.89 2873.95C1191.57 2895.43 1187.54 2934.34 1208.93 2960.73Z" fill="#AABD4D"/>
</g>
<g filter="url(#filter1_f_4092_2)">
<path d="M370.927 5025.73C379.434 5036.23 390.704 5043.22 402.876 5046.48C421.195 5051.39 441.521 5047.85 457.378 5035.2C457.421 5035.18 457.462 5035.15 457.501 5035.12C457.539 5035.09 457.577 5035.06 457.614 5035.03L457.669 5034.99C457.708 5034.96 457.744 5034.93 457.781 5034.9L514.122 4989.31L540.124 5056.96C540.148 5057.03 540.177 5057.09 540.204 5057.15C540.216 5057.18 540.227 5057.21 540.239 5057.25C552.554 5088.86 588.258 5104.66 619.947 5092.49C651.665 5080.32 667.591 5044.64 655.569 5012.88L655.545 5012.8C655.525 5012.74 655.508 5012.69 655.476 5012.63L629.572 4944.98L701.939 4941.15C735.933 4939.35 762.161 4910.2 760.369 4876.19C758.577 4842.19 729.47 4815.97 695.454 4817.73L623.113 4821.47L641.852 4751.42C650.633 4718.52 631.045 4684.58 598.168 4675.77C565.291 4666.96 531.357 4686.56 522.506 4719.47L503.694 4789.44L442.915 4750.03C442.889 4750.02 442.858 4750.01 442.828 4749.99C442.789 4749.97 442.751 4749.94 442.722 4749.91C414.172 4731.51 375.972 4739.7 357.464 4768.2C338.955 4796.7 347.008 4834.91 375.374 4853.52C375.401 4853.53 375.424 4853.55 375.446 4853.57L375.544 4853.64L375.589 4853.67L436.314 4893.16L380.054 4938.8C380.031 4938.83 380.001 4938.85 379.97 4938.88C379.94 4938.9 379.91 4938.92 379.887 4938.95C353.57 4960.43 349.54 4999.34 370.927 5025.73Z" fill="#AABD4D"/>
</g>
<g filter="url(#filter2_f_4092_2)">
<path d="M942.927 4111.73C951.434 4122.23 962.704 4129.22 974.876 4132.48C993.195 4137.39 1013.52 4133.85 1029.38 4121.2C1029.42 4121.18 1029.46 4121.15 1029.5 4121.12C1029.54 4121.09 1029.58 4121.06 1029.61 4121.03L1029.67 4120.99C1029.71 4120.96 1029.74 4120.93 1029.78 4120.9L1086.12 4075.31L1112.12 4142.96C1112.15 4143.03 1112.18 4143.09 1112.2 4143.15C1112.22 4143.18 1112.23 4143.21 1112.24 4143.25C1124.55 4174.86 1160.26 4190.66 1191.95 4178.49C1223.67 4166.32 1239.59 4130.64 1227.57 4098.88L1227.55 4098.8C1227.53 4098.74 1227.51 4098.69 1227.48 4098.63L1201.57 4030.98L1273.94 4027.15C1307.93 4025.35 1334.16 3996.2 1332.37 3962.19C1330.58 3928.19 1301.47 3901.97 1267.45 3903.73L1195.11 3907.47L1213.85 3837.42C1222.63 3804.52 1203.05 3770.58 1170.17 3761.77C1137.29 3752.96 1103.36 3772.56 1094.51 3805.47L1075.69 3875.44L1014.91 3836.03C1014.89 3836.02 1014.86 3836.01 1014.83 3835.99C1014.79 3835.97 1014.75 3835.94 1014.72 3835.91C986.172 3817.51 947.972 3825.7 929.464 3854.2C910.955 3882.7 919.008 3920.91 947.374 3939.52C947.401 3939.53 947.424 3939.55 947.446 3939.57L947.544 3939.64L947.589 3939.67L1008.31 3979.16L952.054 4024.8C952.031 4024.83 952.001 4024.85 951.97 4024.88C951.94 4024.9 951.91 4024.92 951.887 4024.95C925.57 4046.43 921.54 4085.34 942.927 4111.73Z" fill="#AABD4D"/>
</g>
<g filter="url(#filter3_f_4092_2)">
<path d="M334.927 4342.73C343.434 4353.23 354.704 4360.22 366.876 4363.48C385.195 4368.39 405.521 4364.85 421.378 4352.2C421.421 4352.18 421.462 4352.15 421.501 4352.12C421.539 4352.09 421.577 4352.06 421.614 4352.03L421.669 4351.99C421.708 4351.96 421.744 4351.93 421.781 4351.9L478.122 4306.31L504.124 4373.96C504.148 4374.03 504.177 4374.09 504.204 4374.15C504.216 4374.18 504.227 4374.21 504.239 4374.25C516.554 4405.86 552.258 4421.66 583.947 4409.49C615.665 4397.32 631.591 4361.64 619.569 4329.88L619.545 4329.8C619.525 4329.74 619.508 4329.69 619.476 4329.63L593.572 4261.98L665.939 4258.15C699.933 4256.35 726.161 4227.2 724.369 4193.19C722.577 4159.19 693.47 4132.97 659.454 4134.73L587.113 4138.47L605.852 4068.42C614.633 4035.52 595.045 4001.58 562.168 3992.77C529.291 3983.96 495.357 4003.56 486.506 4036.47L467.694 4106.44L406.915 4067.03C406.889 4067.02 406.858 4067.01 406.828 4066.99C406.789 4066.97 406.751 4066.94 406.722 4066.91C378.172 4048.51 339.972 4056.7 321.464 4085.2C302.955 4113.7 311.008 4151.91 339.374 4170.52C339.401 4170.53 339.424 4170.55 339.446 4170.57L339.544 4170.64L339.589 4170.67L400.314 4210.16L344.054 4255.8C344.031 4255.83 344.001 4255.85 343.97 4255.88C343.94 4255.9 343.91 4255.92 343.887 4255.95C317.57 4277.43 313.54 4316.34 334.927 4342.73Z" fill="#FFB4B0"/>
</g>
<g filter="url(#filter4_f_4092_2)">
<path d="M832.808 4450.19C844.411 4464.51 859.783 4474.04 876.387 4478.49C901.374 4485.19 929.1 4480.36 950.73 4463.11C950.788 4463.08 950.844 4463.04 950.898 4463C950.949 4462.96 951.001 4462.92 951.051 4462.88L951.127 4462.82C951.179 4462.78 951.229 4462.73 951.279 4462.69L1028.13 4400.52L1063.6 4492.79C1063.63 4492.89 1063.67 4492.97 1063.71 4493.05C1063.72 4493.09 1063.74 4493.13 1063.75 4493.18C1080.55 4536.3 1129.25 4557.85 1172.48 4541.25C1215.74 4524.66 1237.47 4475.98 1221.07 4432.67L1221.04 4432.56C1221.01 4432.47 1220.98 4432.4 1220.94 4432.33L1185.61 4340.04L1284.32 4334.82C1330.69 4332.36 1366.46 4292.6 1364.02 4246.22C1361.57 4199.84 1321.87 4164.07 1275.47 4166.47L1176.8 4171.58L1202.36 4076.02C1214.34 4031.15 1187.62 3984.85 1142.77 3972.83C1097.93 3960.82 1051.64 3987.55 1039.57 4032.44L1013.91 4127.89L931.001 4074.13C930.965 4074.12 930.924 4074.1 930.883 4074.07C930.83 4074.04 930.777 4074 930.738 4073.97C891.795 4048.87 839.69 4060.04 814.443 4098.92C789.197 4137.79 800.182 4189.91 838.874 4215.29C838.91 4215.31 838.941 4215.33 838.971 4215.36L839.105 4215.45L839.167 4215.5L921.998 4269.37L845.256 4331.62C845.225 4331.66 845.184 4331.69 845.143 4331.72C845.101 4331.75 845.06 4331.79 845.029 4331.82C809.132 4361.12 803.636 4414.19 832.808 4450.19Z" fill="#FFB4B0"/>
</g>
<g filter="url(#filter5_f_4092_2)">
<path d="M1102.93 5327.73C1111.43 5338.23 1122.7 5345.22 1134.88 5348.48C1153.19 5353.39 1173.52 5349.85 1189.38 5337.2C1189.42 5337.18 1189.46 5337.15 1189.5 5337.12C1189.54 5337.09 1189.58 5337.06 1189.61 5337.03L1189.67 5336.99C1189.71 5336.96 1189.74 5336.93 1189.78 5336.9L1246.12 5291.31L1272.12 5358.96C1272.15 5359.03 1272.18 5359.09 1272.2 5359.15C1272.22 5359.18 1272.23 5359.21 1272.24 5359.25C1284.55 5390.86 1320.26 5406.66 1351.95 5394.49C1383.67 5382.32 1399.59 5346.64 1387.57 5314.88L1387.55 5314.8C1387.53 5314.74 1387.51 5314.69 1387.48 5314.63L1361.57 5246.98L1433.94 5243.15C1467.93 5241.35 1494.16 5212.2 1492.37 5178.19C1490.58 5144.19 1461.47 5117.97 1427.45 5119.73L1355.11 5123.47L1373.85 5053.42C1382.63 5020.52 1363.05 4986.58 1330.17 4977.77C1297.29 4968.96 1263.36 4988.56 1254.51 5021.47L1235.69 5091.44L1174.91 5052.03C1174.89 5052.02 1174.86 5052.01 1174.83 5051.99C1174.79 5051.97 1174.75 5051.94 1174.72 5051.91C1146.17 5033.51 1107.97 5041.7 1089.46 5070.2C1070.96 5098.7 1079.01 5136.91 1107.37 5155.52C1107.4 5155.53 1107.42 5155.55 1107.45 5155.57L1107.54 5155.64L1107.59 5155.67L1168.31 5195.16L1112.05 5240.8C1112.03 5240.83 1112 5240.85 1111.97 5240.88C1111.94 5240.9 1111.91 5240.92 1111.89 5240.95C1085.57 5262.43 1081.54 5301.34 1102.93 5327.73Z" fill="#AABD4D"/>
</g>
<g filter="url(#filter6_f_4092_2)">
<path d="M522.927 6071.73C531.434 6082.23 542.704 6089.22 554.876 6092.48C573.195 6097.39 593.521 6093.85 609.378 6081.2C609.421 6081.18 609.462 6081.15 609.501 6081.12C609.539 6081.09 609.577 6081.06 609.614 6081.03L609.669 6080.99C609.708 6080.96 609.744 6080.93 609.781 6080.9L666.122 6035.31L692.124 6102.96C692.148 6103.03 692.177 6103.09 692.204 6103.15C692.216 6103.18 692.227 6103.21 692.239 6103.25C704.554 6134.86 740.258 6150.66 771.947 6138.49C803.665 6126.32 819.591 6090.64 807.569 6058.88L807.545 6058.8C807.525 6058.74 807.508 6058.69 807.476 6058.63L781.572 5990.98L853.939 5987.15C887.933 5985.35 914.161 5956.2 912.369 5922.19C910.577 5888.19 881.47 5861.97 847.454 5863.73L775.113 5867.47L793.852 5797.42C802.633 5764.52 783.045 5730.58 750.168 5721.77C717.291 5712.96 683.357 5732.56 674.506 5765.47L655.694 5835.44L594.915 5796.03C594.889 5796.02 594.858 5796.01 594.828 5795.99C594.789 5795.97 594.751 5795.94 594.722 5795.91C566.172 5777.51 527.972 5785.7 509.464 5814.2C490.955 5842.7 499.008 5880.91 527.374 5899.52C527.401 5899.53 527.424 5899.55 527.446 5899.57L527.544 5899.64L527.589 5899.67L588.314 5939.16L532.054 5984.8C532.031 5984.83 532.001 5984.85 531.97 5984.88C531.94 5984.9 531.91 5984.92 531.887 5984.95C505.57 6006.43 501.54 6045.34 522.927 6071.73Z" fill="#AABD4D"/>
</g>
<g filter="url(#filter7_f_4092_2)">
<path d="M940.927 3396.73C949.434 3407.23 960.704 3414.22 972.876 3417.48C991.195 3422.39 1011.52 3418.85 1027.38 3406.2C1027.42 3406.18 1027.46 3406.15 1027.5 3406.12C1027.54 3406.09 1027.58 3406.06 1027.61 3406.03L1027.67 3405.99C1027.71 3405.96 1027.74 3405.93 1027.78 3405.9L1084.12 3360.31L1110.12 3427.96C1110.15 3428.03 1110.18 3428.09 1110.2 3428.15C1110.22 3428.18 1110.23 3428.21 1110.24 3428.25C1122.55 3459.86 1158.26 3475.66 1189.95 3463.49C1221.67 3451.32 1237.59 3415.64 1225.57 3383.88L1225.55 3383.8C1225.53 3383.74 1225.51 3383.69 1225.48 3383.63L1199.57 3315.98L1271.94 3312.15C1305.93 3310.35 1332.16 3281.2 1330.37 3247.19C1328.58 3213.19 1299.47 3186.97 1265.45 3188.73L1193.11 3192.47L1211.85 3122.42C1220.63 3089.52 1201.05 3055.58 1168.17 3046.77C1135.29 3037.96 1101.36 3057.56 1092.51 3090.47L1073.69 3160.44L1012.91 3121.03C1012.89 3121.02 1012.86 3121.01 1012.83 3120.99C1012.79 3120.97 1012.75 3120.94 1012.72 3120.91C984.172 3102.51 945.972 3110.7 927.464 3139.2C908.955 3167.7 917.008 3205.91 945.374 3224.52C945.401 3224.53 945.424 3224.55 945.446 3224.57L945.544 3224.64L945.589 3224.67L1006.31 3264.16L950.054 3309.8C950.031 3309.83 950.001 3309.85 949.97 3309.88C949.94 3309.9 949.91 3309.92 949.887 3309.95C923.57 3331.43 919.54 3370.34 940.927 3396.73Z" fill="#AABD4D"/>
</g>
<g filter="url(#filter8_f_4092_2)">
<path d="M332.927 3627.73C341.434 3638.23 352.704 3645.22 364.876 3648.48C383.195 3653.39 403.521 3649.85 419.378 3637.2C419.421 3637.18 419.462 3637.15 419.501 3637.12C419.539 3637.09 419.577 3637.06 419.614 3637.03L419.669 3636.99C419.708 3636.96 419.744 3636.93 419.781 3636.9L476.122 3591.31L502.124 3658.96C502.148 3659.03 502.177 3659.09 502.204 3659.15C502.216 3659.18 502.227 3659.21 502.239 3659.25C514.554 3690.86 550.258 3706.66 581.947 3694.49C613.665 3682.32 629.591 3646.64 617.569 3614.88L617.545 3614.8C617.525 3614.74 617.508 3614.69 617.476 3614.63L591.572 3546.98L663.939 3543.15C697.933 3541.35 724.161 3512.2 722.369 3478.19C720.577 3444.19 691.47 3417.97 657.454 3419.73L585.113 3423.47L603.852 3353.42C612.633 3320.52 593.045 3286.58 560.168 3277.77C527.291 3268.96 493.357 3288.56 484.506 3321.47L465.694 3391.44L404.915 3352.03C404.889 3352.02 404.858 3352.01 404.828 3351.99C404.789 3351.97 404.751 3351.94 404.722 3351.91C376.172 3333.51 337.972 3341.7 319.464 3370.2C300.955 3398.7 309.008 3436.91 337.374 3455.52C337.401 3455.53 337.424 3455.55 337.446 3455.57L337.544 3455.64L337.589 3455.67L398.314 3495.16L342.054 3540.8C342.031 3540.83 342.001 3540.85 341.97 3540.88C341.94 3540.9 341.91 3540.92 341.887 3540.95C315.57 3562.43 311.54 3601.34 332.927 3627.73Z" fill="#FFB4B0"/>
</g>
<g filter="url(#filter9_f_4092_2)">
<path d="M332.927 3627.73C341.434 3638.23 352.704 3645.22 364.876 3648.48C383.195 3653.39 403.521 3649.85 419.378 3637.2C419.421 3637.18 419.462 3637.15 419.501 3637.12C419.539 3637.09 419.577 3637.06 419.614 3637.03L419.669 3636.99C419.708 3636.96 419.744 3636.93 419.781 3636.9L476.122 3591.31L502.124 3658.96C502.148 3659.03 502.177 3659.09 502.204 3659.15C502.216 3659.18 502.227 3659.21 502.239 3659.25C514.554 3690.86 550.258 3706.66 581.947 3694.49C613.665 3682.32 629.591 3646.64 617.569 3614.88L617.545 3614.8C617.525 3614.74 617.508 3614.69 617.476 3614.63L591.572 3546.98L663.939 3543.15C697.933 3541.35 724.161 3512.2 722.369 3478.19C720.577 3444.19 691.47 3417.97 657.454 3419.73L585.113 3423.47L603.852 3353.42C612.633 3320.52 593.045 3286.58 560.168 3277.77C527.291 3268.96 493.357 3288.56 484.506 3321.47L465.694 3391.44L404.915 3352.03C404.889 3352.02 404.858 3352.01 404.828 3351.99C404.789 3351.97 404.751 3351.94 404.722 3351.91C376.172 3333.51 337.972 3341.7 319.464 3370.2C300.955 3398.7 309.008 3436.91 337.374 3455.52C337.401 3455.53 337.424 3455.55 337.446 3455.57L337.544 3455.64L337.589 3455.67L398.314 3495.16L342.054 3540.8C342.031 3540.83 342.001 3540.85 341.97 3540.88C341.94 3540.9 341.91 3540.92 341.887 3540.95C315.57 3562.43 311.54 3601.34 332.927 3627.73Z" fill="#FFB4B0"/>
</g>
<g filter="url(#filter10_f_4092_2)">
<path d="M520.927 5356.73C529.434 5367.23 540.704 5374.22 552.876 5377.48C571.195 5382.39 591.521 5378.85 607.378 5366.2C607.421 5366.18 607.462 5366.15 607.501 5366.12C607.539 5366.09 607.577 5366.06 607.614 5366.03L607.669 5365.99C607.708 5365.96 607.744 5365.93 607.781 5365.9L664.122 5320.31L690.124 5387.96C690.148 5388.03 690.177 5388.09 690.204 5388.15C690.216 5388.18 690.227 5388.21 690.239 5388.25C702.554 5419.86 738.258 5435.66 769.947 5423.49C801.665 5411.32 817.591 5375.64 805.569 5343.88L805.545 5343.8C805.525 5343.74 805.508 5343.69 805.476 5343.63L779.572 5275.98L851.939 5272.15C885.933 5270.35 912.161 5241.2 910.369 5207.19C908.577 5173.19 879.47 5146.97 845.454 5148.73L773.113 5152.47L791.852 5082.42C800.633 5049.52 781.045 5015.58 748.168 5006.77C715.291 4997.96 681.357 5017.56 672.506 5050.47L653.694 5120.44L592.915 5081.03C592.889 5081.02 592.858 5081.01 592.828 5080.99C592.789 5080.97 592.751 5080.94 592.722 5080.91C564.172 5062.51 525.972 5070.7 507.464 5099.2C488.955 5127.7 497.008 5165.91 525.374 5184.52C525.401 5184.53 525.424 5184.55 525.446 5184.57L525.544 5184.64L525.589 5184.67L586.314 5224.16L530.054 5269.8C530.031 5269.83 530.001 5269.85 529.97 5269.88C529.94 5269.9 529.91 5269.92 529.887 5269.95C503.57 5291.43 499.54 5330.34 520.927 5356.73Z" fill="#FFB4B0"/>
</g>
<g filter="url(#filter11_f_4092_2)">
<path d="M-91.0728 5473.73C-82.5664 5484.23 -71.2965 5491.22 -59.1241 5494.48C-40.8052 5499.39 -20.4793 5495.85 -4.6215 5483.2C-4.57925 5483.18 -4.53826 5483.15 -4.49856 5483.12C-4.46063 5483.09 -4.42268 5483.06 -4.38648 5483.03L-4.33063 5482.99C-4.29223 5482.96 -4.25556 5482.93 -4.21937 5482.9L52.1225 5437.31L78.1241 5504.96C78.148 5505.03 78.1775 5505.09 78.2037 5505.15C78.2164 5505.18 78.2274 5505.21 78.2392 5505.25C90.5545 5536.86 126.258 5552.66 157.947 5540.49C189.665 5528.32 205.591 5492.64 193.569 5460.88L193.545 5460.8C193.525 5460.74 193.508 5460.69 193.476 5460.63L167.572 5392.98L239.939 5389.15C273.933 5387.35 300.161 5358.2 298.369 5324.19C296.577 5290.19 267.47 5263.97 233.454 5265.73L161.113 5269.47L179.852 5199.42C188.633 5166.52 169.045 5132.58 136.168 5123.77C103.291 5114.96 69.3566 5134.56 60.5061 5167.47L41.6935 5237.44L-19.0852 5198.03C-19.1115 5198.02 -19.142 5198.01 -19.1719 5197.99C-19.2108 5197.97 -19.2493 5197.94 -19.2783 5197.91C-47.8279 5179.51 -86.0276 5187.7 -104.536 5216.2C-123.045 5244.7 -114.992 5282.91 -86.6256 5301.52C-86.5992 5301.53 -86.5763 5301.55 -86.5543 5301.57L-86.456 5301.64L-86.4107 5301.67L-25.6858 5341.16L-81.9465 5386.8C-81.9694 5386.83 -81.9995 5386.85 -82.0297 5386.88C-82.0603 5386.9 -82.0905 5386.92 -82.1133 5386.95C-108.43 5408.43 -112.46 5447.34 -91.0728 5473.73Z" fill="#FFB4B0"/>
</g>
<g filter="url(#filter12_f_4092_2)">
<path d="M187.927 2258.73C196.434 2269.23 207.704 2276.22 219.876 2279.48C238.195 2284.39 258.521 2280.85 274.378 2268.2C274.421 2268.18 274.462 2268.15 274.501 2268.12C274.539 2268.09 274.577 2268.06 274.614 2268.03L274.669 2267.99C274.708 2267.96 274.744 2267.93 274.781 2267.9L331.122 2222.31L357.124 2289.96C357.148 2290.03 357.177 2290.09 357.204 2290.15C357.216 2290.18 357.227 2290.21 357.239 2290.25C369.554 2321.86 405.258 2337.66 436.947 2325.49C468.665 2313.32 484.591 2277.64 472.569 2245.88L472.545 2245.8C472.525 2245.74 472.508 2245.69 472.476 2245.63L446.572 2177.98L518.939 2174.15C552.933 2172.35 579.161 2143.2 577.369 2109.19C575.577 2075.19 546.47 2048.97 512.454 2050.73L440.113 2054.47L458.852 1984.42C467.633 1951.52 448.045 1917.58 415.168 1908.77C382.291 1899.96 348.357 1919.56 339.506 1952.47L320.694 2022.44L259.915 1983.03C259.889 1983.02 259.858 1983.01 259.828 1982.99C259.789 1982.97 259.751 1982.94 259.722 1982.91C231.172 1964.51 192.972 1972.7 174.464 2001.2C155.955 2029.7 164.008 2067.91 192.374 2086.52C192.401 2086.53 192.424 2086.55 192.446 2086.57L192.544 2086.64L192.589 2086.67L253.314 2126.16L197.054 2171.8C197.031 2171.83 197.001 2171.85 196.97 2171.88C196.94 2171.9 196.91 2171.92 196.887 2171.95C170.57 2193.43 166.54 2232.34 187.927 2258.73Z" fill="#FFB4B0"/>
</g>
<g filter="url(#filter13_f_4092_2)">
<path d="M-60.0728 2084.73C-51.5664 2095.23 -40.2965 2102.22 -28.1241 2105.48C-9.80519 2110.39 10.5207 2106.85 26.3785 2094.2C26.4207 2094.18 26.4617 2094.15 26.5014 2094.12C26.5394 2094.09 26.5773 2094.06 26.6135 2094.03L26.6694 2093.99C26.7078 2093.96 26.7444 2093.93 26.7806 2093.9L83.1225 2048.31L109.124 2115.96C109.148 2116.03 109.177 2116.09 109.204 2116.15C109.216 2116.18 109.227 2116.21 109.239 2116.25C121.554 2147.86 157.258 2163.66 188.947 2151.49C220.665 2139.32 236.591 2103.64 224.569 2071.88L224.545 2071.8C224.525 2071.74 224.508 2071.69 224.476 2071.63L198.572 2003.98L270.939 2000.15C304.933 1998.35 331.161 1969.2 329.369 1935.19C327.577 1901.19 298.47 1874.97 264.454 1876.73L192.113 1880.47L210.852 1810.42C219.633 1777.52 200.045 1743.58 167.168 1734.77C134.291 1725.96 100.357 1745.56 91.5061 1778.47L72.6935 1848.44L11.9148 1809.03C11.8885 1809.02 11.858 1809.01 11.8281 1808.99C11.7892 1808.97 11.7507 1808.94 11.7217 1808.91C-16.8279 1790.51 -55.0276 1798.7 -73.5364 1827.2C-92.0449 1855.7 -83.9918 1893.91 -55.6256 1912.52C-55.5992 1912.53 -55.5763 1912.55 -55.5543 1912.57L-55.456 1912.64L-55.4107 1912.67L5.3142 1952.16L-50.9465 1997.8C-50.9694 1997.83 -50.9995 1997.85 -51.0297 1997.88C-51.0603 1997.9 -51.0905 1997.92 -51.1133 1997.95C-77.4302 2019.43 -81.4595 2058.34 -60.0728 2084.73Z" fill="#AABD4D"/>
</g>
<g filter="url(#filter14_f_4092_2)">
<path d="M-60.0728 2084.73C-51.5664 2095.23 -40.2965 2102.22 -28.1241 2105.48C-9.80519 2110.39 10.5207 2106.85 26.3785 2094.2C26.4207 2094.18 26.4617 2094.15 26.5014 2094.12C26.5394 2094.09 26.5773 2094.06 26.6135 2094.03L26.6694 2093.99C26.7078 2093.96 26.7444 2093.93 26.7806 2093.9L83.1225 2048.31L109.124 2115.96C109.148 2116.03 109.177 2116.09 109.204 2116.15C109.216 2116.18 109.227 2116.21 109.239 2116.25C121.554 2147.86 157.258 2163.66 188.947 2151.49C220.665 2139.32 236.591 2103.64 224.569 2071.88L224.545 2071.8C224.525 2071.74 224.508 2071.69 224.476 2071.63L198.572 2003.98L270.939 2000.15C304.933 1998.35 331.161 1969.2 329.369 1935.19C327.577 1901.19 298.47 1874.97 264.454 1876.73L192.113 1880.47L210.852 1810.42C219.633 1777.52 200.045 1743.58 167.168 1734.77C134.291 1725.96 100.357 1745.56 91.5061 1778.47L72.6935 1848.44L11.9148 1809.03C11.8885 1809.02 11.858 1809.01 11.8281 1808.99C11.7892 1808.97 11.7507 1808.94 11.7217 1808.91C-16.8279 1790.51 -55.0276 1798.7 -73.5364 1827.2C-92.0449 1855.7 -83.9918 1893.91 -55.6256 1912.52C-55.5992 1912.53 -55.5763 1912.55 -55.5543 1912.57L-55.456 1912.64L-55.4107 1912.67L5.3142 1952.16L-50.9465 1997.8C-50.9694 1997.83 -50.9995 1997.85 -51.0297 1997.88C-51.0603 1997.9 -51.0905 1997.92 -51.1133 1997.95C-77.4302 2019.43 -81.4595 2058.34 -60.0728 2084.73Z" fill="#AABD4D"/>
</g>
<g filter="url(#filter15_f_4092_2)">
<path d="M632.927 2878.73C641.434 2889.23 652.704 2896.22 664.876 2899.48C683.195 2904.39 703.521 2900.85 719.378 2888.2C719.421 2888.18 719.462 2888.15 719.501 2888.12C719.539 2888.09 719.577 2888.06 719.614 2888.03L719.669 2887.99C719.708 2887.96 719.744 2887.93 719.781 2887.9L776.122 2842.31L802.124 2909.96C802.148 2910.03 802.177 2910.09 802.204 2910.15C802.216 2910.18 802.227 2910.21 802.239 2910.25C814.554 2941.86 850.258 2957.66 881.947 2945.49C913.665 2933.32 929.591 2897.64 917.569 2865.88L917.545 2865.8C917.525 2865.74 917.508 2865.69 917.476 2865.63L891.572 2797.98L963.939 2794.15C997.933 2792.35 1024.16 2763.2 1022.37 2729.19C1020.58 2695.19 991.47 2668.97 957.454 2670.73L885.113 2674.47L903.852 2604.42C912.633 2571.52 893.045 2537.58 860.168 2528.77C827.291 2519.96 793.357 2539.56 784.506 2572.47L765.694 2642.44L704.915 2603.03C704.889 2603.02 704.858 2603.01 704.828 2602.99C704.789 2602.97 704.751 2602.94 704.722 2602.91C676.172 2584.51 637.972 2592.7 619.464 2621.2C600.955 2649.7 609.008 2687.91 637.374 2706.52C637.401 2706.53 637.424 2706.55 637.446 2706.57L637.544 2706.64L637.589 2706.67L698.314 2746.16L642.054 2791.8C642.031 2791.83 642.001 2791.85 641.97 2791.88C641.94 2791.9 641.91 2791.92 641.887 2791.95C615.57 2813.43 611.54 2852.34 632.927 2878.73Z" fill="#FFB4B0"/>
</g>
<g filter="url(#filter16_f_4092_2)">
<path d="M384.927 2704.73C393.434 2715.23 404.704 2722.22 416.876 2725.48C435.195 2730.39 455.521 2726.85 471.378 2714.2C471.421 2714.18 471.462 2714.15 471.501 2714.12C471.539 2714.09 471.577 2714.06 471.614 2714.03L471.669 2713.99C471.708 2713.96 471.744 2713.93 471.781 2713.9L528.122 2668.31L554.124 2735.96C554.148 2736.03 554.177 2736.09 554.204 2736.15C554.216 2736.18 554.227 2736.21 554.239 2736.25C566.554 2767.86 602.258 2783.66 633.947 2771.49C665.665 2759.32 681.591 2723.64 669.569 2691.88L669.545 2691.8C669.525 2691.74 669.508 2691.69 669.476 2691.63L643.572 2623.98L715.939 2620.15C749.933 2618.35 776.161 2589.2 774.369 2555.19C772.577 2521.19 743.47 2494.97 709.454 2496.73L637.113 2500.47L655.852 2430.42C664.633 2397.52 645.045 2363.58 612.168 2354.77C579.291 2345.96 545.357 2365.56 536.506 2398.47L517.694 2468.44L456.915 2429.03C456.889 2429.02 456.858 2429.01 456.828 2428.99C456.789 2428.97 456.751 2428.94 456.722 2428.91C428.172 2410.51 389.972 2418.7 371.464 2447.2C352.955 2475.7 361.008 2513.91 389.374 2532.52C389.401 2532.53 389.424 2532.55 389.446 2532.57L389.544 2532.64L389.589 2532.67L450.314 2572.16L394.054 2617.8C394.031 2617.83 394.001 2617.85 393.97 2617.88C393.94 2617.9 393.91 2617.92 393.887 2617.95C367.57 2639.43 363.54 2678.34 384.927 2704.73Z" fill="#AABD4D"/>
</g>
<g filter="url(#filter17_f_4092_2)">
<path d="M-60.0728 177.729C-51.5664 188.229 -40.2965 195.217 -28.1241 198.478C-9.80519 203.387 10.5207 199.845 26.3785 187.203C26.4207 187.179 26.4617 187.152 26.5014 187.123C26.5394 187.094 26.5773 187.065 26.6135 187.035L26.6694 186.988C26.7078 186.957 26.7444 186.925 26.7806 186.895L83.1225 141.312L109.124 208.959C109.148 209.032 109.177 209.09 109.204 209.154C109.216 209.183 109.227 209.213 109.239 209.246C121.554 240.856 157.258 256.66 188.947 244.486C220.665 232.322 236.591 196.636 224.569 164.882L224.545 164.804C224.525 164.739 224.508 164.689 224.476 164.634L198.572 96.9785L270.939 93.1469C304.933 91.3476 331.161 62.1979 329.369 28.193C327.577 -5.80956 298.47 -32.0338 264.454 -30.2721L192.113 -26.5285L210.852 -96.5828C219.633 -129.481 200.045 -163.422 167.168 -172.231C134.291 -181.041 100.357 -161.441 91.5061 -128.53L72.6935 -58.5588L11.9148 -97.972C11.8885 -97.9791 11.858 -97.9935 11.8281 -98.0112C11.7892 -98.0337 11.7507 -98.0621 11.7217 -98.0877C-16.8279 -116.485 -55.0276 -108.296 -73.5364 -79.7951C-92.0449 -51.2957 -83.9918 -13.0881 -55.6256 5.51633C-55.5992 5.53281 -55.5763 5.55025 -55.5543 5.5674L-55.456 5.63889L-55.4107 5.66982L5.3142 45.1632L-50.9465 90.8024C-50.9694 90.8282 -50.9995 90.8521 -51.0297 90.8759C-51.0603 90.8997 -51.0905 90.9236 -51.1133 90.9495C-77.4302 112.43 -81.4595 151.336 -60.0728 177.729Z" fill="#FFB4B0"/>
</g>
<g filter="url(#filter18_f_4092_2)">
<path d="M1093.42 465.729C1101.92 476.229 1113.19 483.217 1125.37 486.478C1143.69 491.387 1164.01 487.845 1179.87 475.203C1179.91 475.179 1179.95 475.152 1179.99 475.123C1180.03 475.094 1180.07 475.065 1180.1 475.035L1180.16 474.988C1180.2 474.957 1180.24 474.925 1180.27 474.895L1236.61 429.312L1262.61 496.959C1262.64 497.032 1262.67 497.09 1262.69 497.154C1262.71 497.183 1262.72 497.213 1262.73 497.246C1275.05 528.856 1310.75 544.66 1342.44 532.486C1374.16 520.322 1390.08 484.636 1378.06 452.882L1378.04 452.804C1378.02 452.739 1378 452.689 1377.97 452.634L1352.06 384.979L1424.43 381.147C1458.42 379.348 1484.65 350.198 1482.86 316.193C1481.07 282.19 1451.96 255.966 1417.95 257.728L1345.6 261.471L1364.34 191.417C1373.12 158.519 1353.54 124.578 1320.66 115.769C1287.78 106.959 1253.85 126.559 1245 159.47L1226.18 229.441L1165.41 190.028C1165.38 190.021 1165.35 190.007 1165.32 189.989C1165.28 189.966 1165.24 189.938 1165.21 189.912C1136.66 171.515 1098.46 179.704 1079.95 208.205C1061.45 236.704 1069.5 274.912 1097.87 293.516C1097.89 293.533 1097.91 293.55 1097.94 293.567L1098.03 293.639L1098.08 293.67L1158.8 333.163L1102.54 378.802C1102.52 378.828 1102.49 378.852 1102.46 378.876C1102.43 378.9 1102.4 378.924 1102.38 378.949C1076.06 400.43 1072.03 439.336 1093.42 465.729Z" fill="#FFB4B0"/>
</g>
<g filter="url(#filter19_f_4092_2)">
<path d="M541.035 849.933C554.475 851.343 567.385 848.315 578.298 842.014C594.722 832.531 606.591 815.654 608.865 795.502C608.877 795.455 608.887 795.407 608.895 795.358C608.901 795.311 608.907 795.263 608.912 795.217L608.918 795.144C608.923 795.095 608.927 795.046 608.931 795L616.539 722.928L682.758 752.376C682.826 752.41 682.889 752.431 682.952 752.457C682.982 752.469 683.011 752.482 683.042 752.497C714.102 766.141 750.524 752.069 764.323 721.054C778.15 690.024 764.177 653.529 733.223 639.577L733.151 639.539C733.091 639.506 733.044 639.483 732.982 639.467L666.826 609.944L715.287 556.064C738.052 530.754 735.986 491.596 710.674 468.818C685.364 446.041 646.238 448.08 623.431 473.379L574.926 527.179L538.64 464.392C521.587 434.921 483.736 424.771 454.259 441.79C424.782 458.808 414.646 496.663 431.66 526.193L467.834 588.972L396.988 604.08C396.964 604.093 396.933 604.105 396.899 604.113C396.855 604.125 396.808 604.132 396.77 604.135C363.573 611.313 342.352 644.115 349.418 677.356C356.482 710.596 389.194 731.918 422.407 725.015C422.437 725.008 422.466 725.005 422.493 725.001L422.614 724.982L422.667 724.972L493.532 709.959L486.022 782.013C486.024 782.048 486.02 782.086 486.015 782.124C486.01 782.162 486.006 782.201 486.008 782.235C482.588 816.033 507.249 846.393 541.035 849.933Z" fill="#FFB4B0"/>
</g>
<g filter="url(#filter20_f_4092_2)">
<path d="M906.035 1294.93C919.475 1296.34 932.385 1293.31 943.298 1287.01C959.722 1277.53 971.591 1260.65 973.865 1240.5C973.877 1240.45 973.887 1240.41 973.895 1240.36C973.901 1240.31 973.907 1240.26 973.912 1240.22L973.918 1240.14C973.923 1240.09 973.927 1240.05 973.931 1240L981.539 1167.93L1047.76 1197.38C1047.83 1197.41 1047.89 1197.43 1047.95 1197.46C1047.98 1197.47 1048.01 1197.48 1048.04 1197.5C1079.1 1211.14 1115.52 1197.07 1129.32 1166.05C1143.15 1135.02 1129.18 1098.53 1098.22 1084.58L1098.15 1084.54C1098.09 1084.51 1098.04 1084.48 1097.98 1084.47L1031.83 1054.94L1080.29 1001.06C1103.05 975.754 1100.99 936.596 1075.67 913.818C1050.36 891.041 1011.24 893.08 988.431 918.379L939.926 972.179L903.64 909.392C886.587 879.921 848.736 869.771 819.259 886.79C789.782 903.808 779.646 941.663 796.66 971.193L832.834 1033.97L761.988 1049.08C761.964 1049.09 761.933 1049.1 761.899 1049.11C761.855 1049.13 761.808 1049.13 761.77 1049.13C728.573 1056.31 707.352 1089.11 714.418 1122.36C721.482 1155.6 754.194 1176.92 787.407 1170.02C787.437 1170.01 787.466 1170 787.493 1170L787.614 1169.98L787.667 1169.97L858.532 1154.96L851.022 1227.01C851.024 1227.05 851.02 1227.09 851.015 1227.12C851.01 1227.16 851.006 1227.2 851.008 1227.24C847.588 1261.03 872.249 1291.39 906.035 1294.93Z" fill="#AABD4D"/>
</g>
<defs>
<filter id="filter0_f_4092_2" x="585.509" y="2008.66" width="1612.95" height="1622.93" filterUnits="userSpaceOnUse" color-interpolation-filters="sRGB">
<feFlood flood-opacity="0" result="BackgroundImageFix"/>
<feBlend mode="normal" in="SourceGraphic" in2="BackgroundImageFix" result="shape"/>
<feGaussianBlur stdDeviation="300" result="effect1_foregroundBlur_4092_2"/>
</filter>
<filter id="filter1_f_4092_2" x="-252.491" y="4073.66" width="1612.95" height="1622.93" filterUnits="userSpaceOnUse" color-interpolation-filters="sRGB">
<feFlood flood-opacity="0" result="BackgroundImageFix"/>
<feBlend mode="normal" in="SourceGraphic" in2="BackgroundImageFix" result="shape"/>
<feGaussianBlur stdDeviation="300" result="effect1_foregroundBlur_4092_2"/>
</filter>
<filter id="filter2_f_4092_2" x="319.509" y="3159.66" width="1612.95" height="1622.93" filterUnits="userSpaceOnUse" color-interpolation-filters="sRGB">
<feFlood flood-opacity="0" result="BackgroundImageFix"/>
<feBlend mode="normal" in="SourceGraphic" in2="BackgroundImageFix" result="shape"/>
<feGaussianBlur stdDeviation="300" result="effect1_foregroundBlur_4092_2"/>
</filter>
<filter id="filter3_f_4092_2" x="-288.491" y="3390.66" width="1612.95" height="1622.93" filterUnits="userSpaceOnUse" color-interpolation-filters="sRGB">
<feFlood flood-opacity="0" result="BackgroundImageFix"/>
<feBlend mode="normal" in="SourceGraphic" in2="BackgroundImageFix" result="shape"/>
<feGaussianBlur stdDeviation="300" result="effect1_foregroundBlur_4092_2"/>
</filter>
<filter id="filter4_f_4092_2" x="600.865" y="3769.96" width="963.271" height="976.895" filterUnits="userSpaceOnUse" color-interpolation-filters="sRGB">
<feFlood flood-opacity="0" result="BackgroundImageFix"/>
<feBlend mode="normal" in="SourceGraphic" in2="BackgroundImageFix" result="shape"/>
<feGaussianBlur stdDeviation="100" result="effect1_foregroundBlur_4092_2"/>
</filter>
<filter id="filter5_f_4092_2" x="479.509" y="4375.66" width="1612.95" height="1622.93" filterUnits="userSpaceOnUse" color-interpolation-filters="sRGB">
<feFlood flood-opacity="0" result="BackgroundImageFix"/>
<feBlend mode="normal" in="SourceGraphic" in2="BackgroundImageFix" result="shape"/>
<feGaussianBlur stdDeviation="300" result="effect1_foregroundBlur_4092_2"/>
</filter>
<filter id="filter6_f_4092_2" x="-100.491" y="5119.66" width="1612.95" height="1622.93" filterUnits="userSpaceOnUse" color-interpolation-filters="sRGB">
<feFlood flood-opacity="0" result="BackgroundImageFix"/>
<feBlend mode="normal" in="SourceGraphic" in2="BackgroundImageFix" result="shape"/>
<feGaussianBlur stdDeviation="300" result="effect1_foregroundBlur_4092_2"/>
</filter>
<filter id="filter7_f_4092_2" x="317.509" y="2444.66" width="1612.95" height="1622.93" filterUnits="userSpaceOnUse" color-interpolation-filters="sRGB">
<feFlood flood-opacity="0" result="BackgroundImageFix"/>
<feBlend mode="normal" in="SourceGraphic" in2="BackgroundImageFix" result="shape"/>
<feGaussianBlur stdDeviation="300" result="effect1_foregroundBlur_4092_2"/>
</filter>
<filter id="filter8_f_4092_2" x="-290.491" y="2675.66" width="1612.95" height="1622.93" filterUnits="userSpaceOnUse" color-interpolation-filters="sRGB">
<feFlood flood-opacity="0" result="BackgroundImageFix"/>
<feBlend mode="normal" in="SourceGraphic" in2="BackgroundImageFix" result="shape"/>
<feGaussianBlur stdDeviation="300" result="effect1_foregroundBlur_4092_2"/>
</filter>
<filter id="filter9_f_4092_2" x="-290.491" y="2675.66" width="1612.95" height="1622.93" filterUnits="userSpaceOnUse" color-interpolation-filters="sRGB">
<feFlood flood-opacity="0" result="BackgroundImageFix"/>
<feBlend mode="normal" in="SourceGraphic" in2="BackgroundImageFix" result="shape"/>
<feGaussianBlur stdDeviation="300" result="effect1_foregroundBlur_4092_2"/>
</filter>
<filter id="filter10_f_4092_2" x="-102.491" y="4404.66" width="1612.95" height="1622.93" filterUnits="userSpaceOnUse" color-interpolation-filters="sRGB">
<feFlood flood-opacity="0" result="BackgroundImageFix"/>
<feBlend mode="normal" in="SourceGraphic" in2="BackgroundImageFix" result="shape"/>
<feGaussianBlur stdDeviation="300" result="effect1_foregroundBlur_4092_2"/>
</filter>
<filter id="filter11_f_4092_2" x="-714.491" y="4521.66" width="1612.95" height="1622.93" filterUnits="userSpaceOnUse" color-interpolation-filters="sRGB">
<feFlood flood-opacity="0" result="BackgroundImageFix"/>
<feBlend mode="normal" in="SourceGraphic" in2="BackgroundImageFix" result="shape"/>
<feGaussianBlur stdDeviation="300" result="effect1_foregroundBlur_4092_2"/>
</filter>
<filter id="filter12_f_4092_2" x="-435.491" y="1306.66" width="1612.95" height="1622.93" filterUnits="userSpaceOnUse" color-interpolation-filters="sRGB">
<feFlood flood-opacity="0" result="BackgroundImageFix"/>
<feBlend mode="normal" in="SourceGraphic" in2="BackgroundImageFix" result="shape"/>
<feGaussianBlur stdDeviation="300" result="effect1_foregroundBlur_4092_2"/>
</filter>
<filter id="filter13_f_4092_2" x="-683.491" y="1132.66" width="1612.95" height="1622.93" filterUnits="userSpaceOnUse" color-interpolation-filters="sRGB">
<feFlood flood-opacity="0" result="BackgroundImageFix"/>
<feBlend mode="normal" in="SourceGraphic" in2="BackgroundImageFix" result="shape"/>
<feGaussianBlur stdDeviation="300" result="effect1_foregroundBlur_4092_2"/>
</filter>
<filter id="filter14_f_4092_2" x="-683.491" y="1132.66" width="1612.95" height="1622.93" filterUnits="userSpaceOnUse" color-interpolation-filters="sRGB">
<feFlood flood-opacity="0" result="BackgroundImageFix"/>
<feBlend mode="normal" in="SourceGraphic" in2="BackgroundImageFix" result="shape"/>
<feGaussianBlur stdDeviation="300" result="effect1_foregroundBlur_4092_2"/>
</filter>
<filter id="filter15_f_4092_2" x="9.50903" y="1926.66" width="1612.95" height="1622.93" filterUnits="userSpaceOnUse" color-interpolation-filters="sRGB">
<feFlood flood-opacity="0" result="BackgroundImageFix"/>
<feBlend mode="normal" in="SourceGraphic" in2="BackgroundImageFix" result="shape"/>
<feGaussianBlur stdDeviation="300" result="effect1_foregroundBlur_4092_2"/>
</filter>
<filter id="filter16_f_4092_2" x="-238.491" y="1752.66" width="1612.95" height="1622.93" filterUnits="userSpaceOnUse" color-interpolation-filters="sRGB">
<feFlood flood-opacity="0" result="BackgroundImageFix"/>
<feBlend mode="normal" in="SourceGraphic" in2="BackgroundImageFix" result="shape"/>
<feGaussianBlur stdDeviation="300" result="effect1_foregroundBlur_4092_2"/>
</filter>
<filter id="filter17_f_4092_2" x="-683.491" y="-774.34" width="1612.95" height="1622.93" filterUnits="userSpaceOnUse" color-interpolation-filters="sRGB">
<feFlood flood-opacity="0" result="BackgroundImageFix"/>
<feBlend mode="normal" in="SourceGraphic" in2="BackgroundImageFix" result="shape"/>
<feGaussianBlur stdDeviation="300" result="effect1_foregroundBlur_4092_2"/>
</filter>
<filter id="filter18_f_4092_2" x="470" y="-486.34" width="1612.95" height="1622.93" filterUnits="userSpaceOnUse" color-interpolation-filters="sRGB">
<feFlood flood-opacity="0" result="BackgroundImageFix"/>
<feBlend mode="normal" in="SourceGraphic" in2="BackgroundImageFix" result="shape"/>
<feGaussianBlur stdDeviation="300" result="effect1_foregroundBlur_4092_2"/>
</filter>
<filter id="filter19_f_4092_2" x="-251.94" y="-166.465" width="1621.6" height="1616.74" filterUnits="userSpaceOnUse" color-interpolation-filters="sRGB">
<feFlood flood-opacity="0" result="BackgroundImageFix"/>
<feBlend mode="normal" in="SourceGraphic" in2="BackgroundImageFix" result="shape"/>
<feGaussianBlur stdDeviation="300" result="effect1_foregroundBlur_4092_2"/>
</filter>
<filter id="filter20_f_4092_2" x="113.061" y="278.535" width="1621.6" height="1616.74" filterUnits="userSpaceOnUse" color-interpolation-filters="sRGB">
<feFlood flood-opacity="0" result="BackgroundImageFix"/>
<feBlend mode="normal" in="SourceGraphic" in2="BackgroundImageFix" result="shape"/>
<feGaussianBlur stdDeviation="300" result="effect1_foregroundBlur_4092_2"/>
</filter>
</defs>
</svg>
