<svg width="16" height="16" viewBox="0 0 16 16" fill="none" xmlns="http://www.w3.org/2000/svg">
<path d="M0 8C0 12.4183 3.58172 16 8 16C12.4183 16 16 12.4183 16 8C16 3.58172 12.4183 0 8 0C3.58172 0 0 3.58172 0 8Z" fill="#FE554A"/>
<path d="M4.04996 7.85415C6.19744 6.91853 7.62943 6.30171 8.34593 6.00369C10.3917 5.15279 10.8168 5.00498 11.0938 5.00005C11.1548 4.99903 11.291 5.01413 11.3793 5.08574C11.4538 5.14622 11.4743 5.2279 11.4841 5.28524C11.4939 5.34257 11.5062 5.47318 11.4964 5.57523C11.3856 6.74005 10.9059 9.56675 10.6619 10.8714C10.5586 11.4234 10.3553 11.6085 10.1584 11.6266C9.73064 11.666 9.4058 11.3439 8.99147 11.0723C8.34312 10.6473 7.97685 10.3827 7.34751 9.968C6.62021 9.48872 7.09169 9.2253 7.50618 8.7948C7.61465 8.68213 9.49948 6.96773 9.53597 6.81221C9.54053 6.79276 9.54476 6.72025 9.50169 6.68197C9.45862 6.64368 9.39504 6.65678 9.34917 6.66719C9.28414 6.68195 8.2484 7.36653 6.24195 8.72095C5.94795 8.92283 5.68166 9.02119 5.44308 9.01603C5.18006 9.01035 4.67411 8.86732 4.29799 8.74505C3.83666 8.5951 3.47001 8.51581 3.50194 8.26113C3.51857 8.12848 3.70124 7.99282 4.04996 7.85415Z" fill="white"/>
</svg>
